<svg id="b538a194-335d-420a-bccf-ae51310851b9" data-name="Layer 1" xmlns="http://www.w3.org/2000/svg" width="986.93" height="264.35" viewBox="0 0 986.93 264.35"><polygon points="129.68 37.98 0 0 37.98 129.68 0 259.36 129.68 221.37 259.36 259.36 218.57 130.77 256.55 1.09 129.68 37.98" style="fill:#ee9b52"/><path d="M181,231.44l44.74-16.24c1.84,3.26,4.95,5.51,7.89,5.37l5.55-.26c3.8-.17,5.61-4.16,4.36-9l-1.12-5,33.19-12.07a5.31,5.31,0,1,0-3.63-10l-38.26,13.88s-.74.31-.73,2.41c0,1.36,1.49,5.62,2.55,8.91-.74.45-2.6.4-2.93-.87,0,0-3.47-10.35-3.3-12.34.15-1.77,2.64-2.52,8.1-2.77.7,0,.13-2.53-1.18-3.62a8,8,0,0,0-5.36-1.75l-5.54.26c-3.8.18-5.86,4.23-4.62,9.06l.62,2.38-45.77,16.62Z"/><path d="M76.65,163.58c-5.5-1.07-13,1.7-12.81,13,0,0-14.48-6.51-18,3.48C44.16,185,38.52,199.68,55.4,207c13.4,5.77,50.23,6.2,72.15,1.11L129.68,169s-30.84,24-50.07,12.39a21.87,21.87,0,0,1,.4-6.74C82.13,166,79.78,164.19,76.65,163.58Z" style="fill:#181d61"/><path d="M76.65,163.58c-5.5-1.07-13,1.7-12.81,13,0,0-14.48-6.51-18,3.48-1.7,4.86-4.92,10.07,12,17.35,1.65.7,10.36,2.95,10.61-13.85,3.53,1.1,3.74,18.39,8,18.74,5.39.44,10.9-.17,15.35-2.91,11.07-6.83,13.42-16.51,5.09-15.29-6,.88-12.07.34-17.26-2.78a21.87,21.87,0,0,1,.4-6.74C82.13,166,79.78,164.19,76.65,163.58Z" style="fill:#40599d"/><path d="M83.78,163.13a9.24,9.24,0,0,0-6.27-4,16.63,16.63,0,0,0-3.07-.29A14.46,14.46,0,0,0,64,163.11a16,16,0,0,0-4,7.58,25.58,25.58,0,0,0-5.42-.63c-6.4,0-11,3-12.93,8.57l-.12.34c-5.46,15.49-1.38,26.29,12.12,32.11,7.4,3.19,21.1,5,37.57,5,13.75,0,27.37-1.33,37.37-3.65l3.28-.76,2.85-52.26-7.76,6c-.19.14-19,14.6-35.09,14.6A20.12,20.12,0,0,1,84,178.58a14.09,14.09,0,0,1,.36-2.88C85.78,170,85.59,166,83.78,163.13ZM91.84,189c12.2,0,25-6.41,32.87-11.25l-1.46,26.64a176,176,0,0,1-32.06,2.72c-14.85,0-27.88-1.64-34-4.29C46.06,198.05,47.14,190,50,182l.12-.35c.44-1.24,1.18-2.57,4.46-2.57A21.76,21.76,0,0,1,62,180.72l6.42,2.89-.1-7c0-3.26.68-5.73,2.09-7.16a5.55,5.55,0,0,1,4-1.56,6.88,6.88,0,0,1,1.35.14,2.84,2.84,0,0,1,.46.11c.1.46.27,1.94-.6,5.46a26.08,26.08,0,0,0-.49,8.32l.25,2.19,1.89,1.14A27.69,27.69,0,0,0,91.84,189Z"/><path d="M180.63,206.76l.68.08,1.32-.08Z" style="fill:#40599d"/><path d="M181.31,206.84l-.68-.08h2l-1.32.08c1.81.24,3.64,1.86,5.48,2h20.89s-67.3-50.31-84.61-33.47c0,0-3.13,5.15-7.28,12.61C136.7,197.41,157.78,208.2,181.31,206.84Z" style="fill:#181d61"/><path d="M181.31,206.84c-23.53,1.36-44.61-9.43-65.52-18.82-6.84,12.3-16.43,30.89-19.29,43.07l33.18-9.72,47.26,6.47,9.85-20.38C185,207.28,183.12,207.08,181.31,206.84Z" style="fill:#40599d"/><path d="M191,197.38l4.95-7.49c-5.75-3.79-56.66-36.5-76-17.69l-.35.34-.27.4c-.86,1.31-21.14,32.22-25.85,52.32l-1.69,7.21,10.64-3.11s6.29-23.72,24.11-51C137.61,168.53,171.83,184.73,191,197.38Z"/><path d="M146.57,233.12s60.71,12.69,69.43-6.76c5.83-13-12.06-18.9-12.06-18.9l-20.35.45c-22.54-5.23-48.43,6.26-53.73,10.74s-4.69,22.42-1.22,25.68S146.57,233.12,146.57,233.12Z" style="fill:#181d61"/><path d="M143.24,223s52.3,4.75,56.34-2.89c6-11.32-16-12.16-16-12.16-22.54-5.23-48.43,6.26-53.73,10.74s-2.86,11.15.61,14.41S143.24,223,143.24,223Z" style="fill:#40599d"/><path d="M188.11,207.69c-23.32-17.7-54.75,2.12-61.15,7.54-4.49,3.8-5.36,11.72-5.47,16.1-.08,2.85,0,12.43,4.07,16.27a5.64,5.64,0,0,0,4.17,1.74c3.29,0,8.83-2.25,18.3-11.36a230,230,0,0,0,29.78,3.54c23.61,1.07,37.84-3.41,42.29-13.32,7-15.61-22.76-37.19-28.8-41.36l-5.1,7.38c12.58,8.69,28.51,24.05,25.71,30.31-5,11.12-40.68,9.15-64.42,4.2l-2.38-.5L143.4,230c-4.27,4.27-9.44,8.4-12.18,9.85-1.37-4.56-.9-15.66,1.54-17.72C137.37,218.17,156,206.59,188.11,207.69Z"/><path d="M7.07,92l-.94,22S36.65,140.75,69,108.88l-5.18-6.32S43.19,121.05,7.07,92Z" style="fill:#40599d"/><path d="M45.31,103.87c-10.82,0-22.75-5.17-35.43-15.38L3,82.92,1.55,116l1.62,1.41C3.71,117.84,16.64,129,35,129h0c13.23,0,25.71-5.69,37.1-16.92l2.92-2.87-7.78-9.48-3-3.53-3.48,3C60.62,99.38,55.3,103.87,45.31,103.87ZM35,120h0c-11.57,0-20.74-5.61-24.32-8.16l.48-11.21c11.85,8.1,23.3,12.19,34.12,12.19a36.48,36.48,0,0,0,17.23-4.11C53.84,116.22,44.61,120,35,120Z"/><path d="M10,65.61C19.39,81,36.15,97.35,65.84,103.5L67,94S41.19,77.59,28.16,48.45Z" style="fill:#40599d"/><path d="M29.67,40.84l-25.41,24,1.89,3.1c12.68,20.8,33,34.61,58.79,40l4.8,1,2-17.2-2.37-1.51c-.25-.16-24.77-16-37.11-43.57Zm32.51,55.3L62,98c-20-5.15-35.51-15.78-46.2-31.67l11-10.42C38.29,77.77,55.83,91.61,62.18,96.14Z"/><path d="M61.64,114c4.52,3.83,12.28,2.1,17.34-3.87s5.5-13.9,1-17.74-12.29-2.1-17.35,3.87S57.12,110.12,61.64,114Z" style="fill:#40599d"/><path d="M58.73,117.37a13.36,13.36,0,0,0,8.77,3.1c5.36,0,10.93-2.79,14.9-7.48a21.15,21.15,0,0,0,5.15-12.33,14.15,14.15,0,0,0-4.68-11.74,13.36,13.36,0,0,0-8.77-3.1c-5.35,0-10.92,2.8-14.9,7.48C52.54,101.15,52.34,112,58.73,117.37ZM66,99.11c2.26-2.66,5.35-4.32,8.06-4.32a4.4,4.4,0,0,1,3,1,5.37,5.37,0,0,1,1.53,4.4,12.32,12.32,0,0,1-3,7c-2.26,2.67-5.35,4.32-8.06,4.32a4.47,4.47,0,0,1-3-1C62,108.38,62.71,103,66,99.11Z"/><path d="M168.33,191.67a55,55,0,0,0,69.38-35.19l9.12-27.89a55,55,0,0,0-35.2-69.38L153.77,40.29a55,55,0,0,0-69.38,35.2l-9.12,27.89a55,55,0,0,0,35.19,69.38Z" style="fill:#181d61"/><path d="M162.41,171.92a44.32,44.32,0,0,0,32.67-2.07,46.86,46.86,0,0,0,7.31-4.25,48.47,48.47,0,0,0,18-24.62l7.87-24c8.14-24.9-4.64-51.43-28.55-59.24L151.84,42c-23.9-7.82-49.88,6-58,30.94L86,97c-8.14,24.9,4.64,51.43,28.55,59.24Z" style="fill:#40599d"/><path d="M166.93,195.94a59.45,59.45,0,0,0,75-38.07L251.09,130A59.51,59.51,0,0,0,213,54.94L155.16,36a59.44,59.44,0,0,0-75,38.06L71,102A59.58,59.58,0,0,0,109.07,177Zm-87.4-91.17,9.12-27.89a50.45,50.45,0,0,1,63.72-32.32l57.87,18.91a50.52,50.52,0,0,1,32.32,63.73l-9.11,27.89a50.5,50.5,0,0,1-63.73,32.32l-57.86-18.92A50.58,50.58,0,0,1,79.53,104.77Z"/><path d="M234.16,164.89a55.09,55.09,0,0,0,3.55-8.41l9.12-27.89a55.5,55.5,0,0,0,2.1-8.88,705.86,705.86,0,0,0-79-30.83,706,706,0,0,0-82-21.8,55.64,55.64,0,0,0-3.54,8.41l-9.12,27.89a54.2,54.2,0,0,0-2.1,8.88,705.09,705.09,0,0,0,79,30.83A705.91,705.91,0,0,0,234.16,164.89Z" style="fill:#ffbb65"/><path d="M233.3,169.29l3.29.64,1.55-3a60.61,60.61,0,0,0,3.84-9.1L251.09,130a59.68,59.68,0,0,0,2.28-9.6l.5-3.31-3-1.42a712.55,712.55,0,0,0-79.54-31A711.07,711.07,0,0,0,88.8,62.68L85.5,62,84,65a58.65,58.65,0,0,0-3.84,9.08L71,102a60.22,60.22,0,0,0-2.27,9.6l-.51,3.32,3,1.42a712.81,712.81,0,0,0,79.53,31A710.41,710.41,0,0,0,233.3,169.29ZM79.53,104.77l9.12-27.89c.52-1.58,1.13-3.16,1.82-4.72a712.76,712.76,0,0,1,78,21,712.07,712.07,0,0,1,75.38,29.16q-.55,2.5-1.33,4.89l-9.11,27.88a50.56,50.56,0,0,1-1.82,4.73,713.5,713.5,0,0,1-78-21,713.19,713.19,0,0,1-75.37-29.16C78.57,108,79,106.35,79.53,104.77Z"/><path d="M141.46,125.07c.25,0,16.21.09,30.16,9.91a6.41,6.41,0,0,0,3.72,1.18,6.48,6.48,0,0,0,3.74-11.78c-17.51-12.32-36.91-12.27-37.72-12.28a6.49,6.49,0,0,0,.08,13Z"/><path d="M129.13,133.73c8.91-3,23.94-38,22.46-42.94-3.13-10.38-43.67-30.15-66.42-22.66-6.36,2.1-13.21,42.62-5.61,51.11C84.18,124.4,122.76,135.91,129.13,133.73Z" style="fill:#fff"/><path d="M78.09,122.23c6.53,6.37,44.05,17.76,51.2,15.47C140.4,134.15,158.73,95,157,89.26c-2.83-9.4-20.41-19-35.52-24-21.72-7.13-48.14-6.58-50-5S66.74,72,67.15,74c.35,1.68,4.15,3.12,6.8,4.09C71.66,86.73,69.1,113.47,78.09,122.23Zm4.39-28c1.31-11.41,4-19,5.35-21C95.26,71,106.19,72,118,75.88c15.86,5.19,26.39,13.05,28,16.09-.5,6.37-13,33.72-18.68,36.45-2.62.3-13.7-1.69-27.63-6.25-10.81-3.53-15.13-6-16-6.65C82.64,114.15,81,107.33,82.48,94.21Z"/><path d="M224.88,166.74c11.15-2.36,29.55-39.11,25.66-44.55-13.93-19.49-58.32-27.47-67-21-4.1,3.09-12.63,40.21-7.24,47.92C180.17,154.67,218.1,168.18,224.88,166.74Z" style="fill:#fff"/><path d="M224.3,170c12.43-1.76,26.16-24.85,29.42-33.2,2.71.79,6.63,1.87,7.9.73,1.48-1.33,5.11-11.23,4.56-13.61s-21.55-18.41-43.28-25.49c-15.13-4.93-35-7.57-42.82-1.66-4.74,3.58-13.1,46-6.23,55.46C178.27,158.33,215.26,171.3,224.3,170Zm-36.94-64.54c3.09-1.52,16.23-1.64,32.08,3.54,11.84,3.87,21.24,9.54,26,15.65-.11,2.45-2.42,10.17-8.1,20.15-6.53,11.47-11.91,16-13.6,16.44-1.09.07-6-.52-16.82-4.06-13.93-4.55-24-9.48-26-11.27C178,140.41,184,110.93,187.36,105.49Z"/><path d="M125.68,105.19a13.66,13.66,0,1,0-17.23,8.74A13.66,13.66,0,0,0,125.68,105.19Z"/><path d="M110.89,93.7a5.47,5.47,0,1,0-6.9,3.49A5.48,5.48,0,0,0,110.89,93.7Z" style="fill:#fff"/><path d="M228.85,144.15l9.63-9.07c-21.3-16.44-52.48-5.71-52.48-5.71l1.41,8C201.06,132.66,221.31,138.68,228.85,144.15Z"/><path d="M64,193.18a19.71,19.71,0,0,1-.88,2.59,6.65,6.65,0,0,1-.27.61c-.09.2-.17.41-.27.6-.21.38-.4.77-.62,1.13a15,15,0,0,1-1.4,2c-.26.29-.51.61-.79.87s-.27.28-.41.41l-.42.36a6.76,6.76,0,0,1-.85.69c-.15.1-.29.21-.42.31l-.43.27c-.55.38-1.09.63-1.54.89s-.84.41-1.11.54l-.41.2s.14.08.41.2a9.58,9.58,0,0,0,1.22.46,9.18,9.18,0,0,0,2,.34,7.05,7.05,0,0,0,1.3,0,7.64,7.64,0,0,0,1.45-.2,11.12,11.12,0,0,0,3.15-1.16,12.75,12.75,0,0,0,3-2.29,14,14,0,0,0,2.42-3.21A16.72,16.72,0,0,0,70.76,195a17.76,17.76,0,0,0,.6-4,13.33,13.33,0,0,0-.07-2,15.47,15.47,0,0,0-.28-1.93,14.82,14.82,0,0,0-1.26-3.5,11.6,11.6,0,0,0-2-2.74,8.68,8.68,0,0,0-2.24-1.71,7.46,7.46,0,0,0-2-.75,5,5,0,0,0-1.29-.14h-.45l.28.35a7.52,7.52,0,0,1,.76,1,13.22,13.22,0,0,1,.84,1.47,10.91,10.91,0,0,1,.69,1.93,16.85,16.85,0,0,1,.48,4.81c-.05.87-.12,1.77-.25,2.68A22.54,22.54,0,0,1,64,193.18Z"/><polygon points="268.88 100.67 299.3 77.41 302.79 95.54 272.96 106.58 268.88 100.67"/><polygon points="274.65 115.83 302.79 115.04 300.25 125.91 277.17 123.18 274.65 115.83"/><path d="M161,57.63c-.62,3.32-9.32,4.47-19.42,2.58s-17.79-6.12-17.17-9.44,9.32-4.47,19.42-2.58S161.63,54.31,161,57.63Z" style="fill:#6a8eb5"/><text transform="translate(327.14 209.55)" style="font-size:200px;fill:#ee9b52;font-family:Phosphate-Inline, Phosphate">wpbro</text></svg>